<svg width="132" height="153" viewBox="0 0 132 153" fill="none" xmlns="http://www.w3.org/2000/svg">
<path d="M0 36.3133C0 16.258 16.2955 0 36.3971 0H95.6029C115.704 0 132 16.258 132 36.3133V116.687C132 136.742 115.704 153 95.6029 153H36.3971C16.2955 153 0 136.742 0 116.687V36.3133Z" fill="url(#paint0_linear_183_6251)"/>
<path d="M3.95506 39.5162C3.95506 19.4609 20.2506 3.20289 40.3521 3.20289H91.1535C111.255 3.20289 127.551 19.4609 127.551 39.5162V106.574C127.551 118.607 117.773 128.362 105.712 128.362H25.7933C13.7324 128.362 3.95506 118.608 3.95506 106.574V39.5162Z" fill="url(#paint1_linear_183_6251)"/>
<path d="M0.5 36.3133C0.5 16.5352 16.5706 0.5 36.3971 0.5H95.6029C115.429 0.5 131.5 16.5352 131.5 36.3133V116.687C131.5 136.465 115.429 152.5 95.6029 152.5H36.3971C16.5706 152.5 0.5 136.465 0.5 116.687V36.3133ZM4.45506 39.5162C4.45506 19.7382 20.5256 3.70289 40.3521 3.70289H91.1535C110.98 3.70289 127.051 19.7381 127.051 39.5162V106.574C127.051 118.33 117.498 127.862 105.712 127.862H25.7933C14.0074 127.862 4.45506 118.33 4.45506 106.574V39.5162ZM40.3521 2.70289C19.9755 2.70289 3.45506 19.1837 3.45506 39.5162V106.574C3.45506 118.885 13.4573 128.862 25.7933 128.862H105.712C118.048 128.862 128.051 118.885 128.051 106.574V39.5162C128.051 19.1837 111.53 2.70289 91.1535 2.70289H40.3521Z" stroke="#4CB6DE"/>
<defs>
<linearGradient id="paint0_linear_183_6251" x1="66" y1="-22.4203" x2="66" y2="153" gradientUnits="userSpaceOnUse">
<stop stop-color="#70E8FF"/>
<stop offset="0.911541" stop-color="#39A1E0"/>
<stop offset="1" stop-color="#3597D6"/>
</linearGradient>
<linearGradient id="paint1_linear_183_6251" x1="65.7529" y1="-24.7609" x2="65.7529" y2="128.362" gradientUnits="userSpaceOnUse">
<stop stop-color="#D8F0F4"/>
<stop offset="0.639961" stop-color="#F9FAFC"/>
</linearGradient>
</defs>
</svg>
