<svg width="116" height="103" viewBox="0 0 116 103" fill="none" xmlns="http://www.w3.org/2000/svg">
<g filter="url(#filter0_i_183_6163)">
<path d="M53.39 2.81434C55.4389 -0.738893 60.5611 -0.738896 62.61 2.81434L115.279 94.1546C117.328 97.7079 114.767 102.149 110.669 102.149H5.33108C1.23333 102.149 -1.32777 97.7079 0.721106 94.1546L53.39 2.81434Z" fill="#DF6C01"/>
<path d="M54.0298 9.34339C52.4544 12.6745 47.9252 21.2537 47.2428 20.0031C46.5604 18.7525 49.8552 11.8145 52.9532 6.92791C56.0511 2.04132 57.716 1.15574 58.3984 2.40632C59.0808 3.6569 56.1054 4.95456 54.0298 9.34339Z" fill="#FFE8D2"/>
<path d="M108.317 98.365C111.046 97.9155 110.322 90.0906 113.976 97.7497C114.309 99.0842 111.375 100.12 105.951 100.15C100.526 100.179 97.4181 100.187 97.9874 99.1434C98.5566 98.0995 103.837 98.8879 108.317 98.365Z" fill="#FFE8D2"/>
<path d="M43.891 27.1113C42.8852 28.11 41.1195 30.9314 40.8324 29.9164C41.917 26.5228 43.1994 25.3215 43.9154 24.2661C45.1979 23.0647 46.1494 21.6251 46.4365 22.6401C46.7237 23.6551 44.8968 26.1126 43.891 27.1113Z" fill="#FFE8D2"/>
<path d="M55.5986 75.0651C57.5678 75.0651 58.9743 75.56 59.8182 76.55C60.6621 77.4928 61.0841 78.8362 61.0841 80.5804C61.0841 81.3346 60.9903 82.1596 60.8028 83.0552C60.6152 83.9509 60.2636 84.7994 59.7479 85.6008C59.279 86.355 58.5758 87.0149 57.6381 87.5806C56.7473 88.0992 55.5752 88.3584 54.1218 88.3584C52.012 88.3584 50.5821 87.8163 49.8319 86.7321C49.0818 85.6008 48.7067 84.2102 48.7067 82.5603C48.7067 81.6175 48.8239 80.6982 49.0583 79.8026C49.2927 78.9069 49.6678 78.1056 50.1835 77.3985C50.6993 76.6914 51.4025 76.1257 52.2933 75.7014C53.1841 75.2772 54.2859 75.0651 55.5986 75.0651ZM57.1458 70.1154C55.9737 70.1154 55.0126 69.974 54.2624 69.6912C53.5123 69.4083 52.9263 68.9841 52.5043 68.4184C52.0823 67.8056 51.7776 67.0749 51.5901 66.2264C51.4494 65.3307 51.3791 64.3172 51.3791 63.1859C51.3791 62.7616 51.3791 62.3138 51.3791 61.8424C51.426 61.3239 51.4729 60.6875 51.5197 59.9333C51.6135 59.179 51.6838 58.2362 51.7307 57.1049C51.8245 55.9735 51.9417 54.5358 52.0823 52.7916C52.223 51.0003 52.3871 48.8555 52.5746 46.3571C52.7622 43.8587 52.9731 40.8653 53.2076 37.377C53.2544 36.3399 53.3717 35.7271 53.5592 35.5385C53.6998 35.3971 54.0749 35.3264 54.6844 35.3264H58.8336C61.4123 35.3264 63.2407 35.845 64.3191 36.882C65.4443 37.872 66.0069 39.0504 66.0069 40.4175C66.0069 41.266 65.9131 42.3974 65.7256 43.8115C65.5849 45.1786 65.374 46.7106 65.0927 48.4076C64.8113 50.1047 64.4832 51.896 64.1081 53.7816C63.7799 55.62 63.4283 57.4584 63.0532 59.2969C62.725 61.0882 62.3968 62.8088 62.0686 64.4587C61.7404 66.1086 61.4591 67.5227 61.2247 68.7012C61.131 69.2669 60.9669 69.644 60.7324 69.8326C60.5449 70.0211 60.1933 70.1154 59.6775 70.1154H57.1458Z" fill="white"/>
</g>
<defs>
<filter id="filter0_i_183_6163" x="0" y="0.149414" width="118" height="106" filterUnits="userSpaceOnUse" color-interpolation-filters="sRGB">
<feFlood flood-opacity="0" result="BackgroundImageFix"/>
<feBlend mode="normal" in="SourceGraphic" in2="BackgroundImageFix" result="shape"/>
<feColorMatrix in="SourceAlpha" type="matrix" values="0 0 0 0 0 0 0 0 0 0 0 0 0 0 0 0 0 0 127 0" result="hardAlpha"/>
<feOffset dx="2" dy="4"/>
<feGaussianBlur stdDeviation="6"/>
<feComposite in2="hardAlpha" operator="arithmetic" k2="-1" k3="1"/>
<feColorMatrix type="matrix" values="0 0 0 0 0.695 0 0 0 0 0.341878 0 0 0 0 0.0133208 0 0 0 1 0"/>
<feBlend mode="normal" in2="shape" result="effect1_innerShadow_183_6163"/>
</filter>
</defs>
</svg>
