<svg width="299" height="393" viewBox="0 0 299 393" fill="none" xmlns="http://www.w3.org/2000/svg">
<g filter="url(#filter0_d_183_5463)">
<rect x="12" y="26" width="275" height="351" rx="38" fill="url(#paint0_linear_183_5463)"/>
<rect x="13" y="27" width="273" height="349" rx="37" stroke="#2268A4" stroke-opacity="0.5" stroke-width="2" stroke-linecap="round" stroke-linejoin="round"/>
<path d="M58 35.3542H239C259.435 35.3542 276 51.9197 276 72.3542V311.563C276 323.713 266.15 333.563 254 333.563H43C30.8497 333.563 21 323.713 21 311.563V72.3543C21 51.9198 37.5655 35.3542 58 35.3542Z" fill="url(#paint1_linear_183_5463)" stroke="#4CB6DE" stroke-width="2" stroke-linecap="round" stroke-linejoin="round"/>
<rect x="37" y="8" width="224" height="40.1042" rx="20.0521" fill="url(#paint2_linear_183_5463)"/>
<rect x="42" y="12.5833" width="213" height="29.7917" rx="14.8958" fill="url(#paint3_linear_183_5463)"/>
<path d="M138.96 24.6387C138.875 24.8947 138.763 25.2307 138.624 25.6467C138.496 26.0521 138.352 26.5001 138.192 26.9907C138.032 27.4814 137.867 28.0041 137.696 28.5587C137.525 29.1027 137.349 29.6361 137.168 30.1587C136.997 30.6814 136.827 31.1827 136.656 31.6627C136.485 32.1321 136.331 32.5427 136.192 32.8947C136.149 32.9801 136.059 33.0494 135.92 33.1027C135.792 33.1454 135.584 33.1667 135.296 33.1667C135.115 33.1667 134.928 33.1561 134.736 33.1347C134.544 33.1134 134.363 33.0707 134.192 33.0067C134.032 32.9427 133.888 32.8574 133.76 32.7507C133.643 32.6441 133.552 32.5107 133.488 32.3507C133.328 31.8067 133.173 31.2041 133.024 30.5427C132.885 29.8707 132.747 29.1881 132.608 28.4947C132.469 27.8014 132.331 27.1241 132.192 26.4627C132.064 25.7907 131.931 25.1827 131.792 24.6387C131.792 24.7881 131.787 25.0441 131.776 25.4067C131.765 25.7694 131.755 26.1907 131.744 26.6707C131.733 27.1507 131.717 27.6681 131.696 28.2227C131.685 28.7774 131.675 29.3214 131.664 29.8547C131.653 30.3774 131.643 30.8681 131.632 31.3267C131.621 31.7747 131.616 32.1427 131.616 32.4307C131.616 32.7507 131.595 32.9534 131.552 33.0387C131.52 33.1241 131.456 33.1667 131.36 33.1667H130.48C129.872 33.1667 129.44 33.0494 129.184 32.8147C128.939 32.5694 128.816 32.2121 128.816 31.7427C128.816 31.6147 128.821 31.4014 128.832 31.1027C128.853 30.7934 128.88 30.4307 128.912 30.0147C128.944 29.5987 128.976 29.1454 129.008 28.6547C129.051 28.1534 129.093 27.6467 129.136 27.1347C129.189 26.4414 129.232 25.8654 129.264 25.4067C129.307 24.9374 129.339 24.5481 129.36 24.2387C129.381 23.9294 129.397 23.6787 129.408 23.4867C129.429 23.2947 129.44 23.1241 129.44 22.9747C129.451 22.8254 129.456 22.6867 129.456 22.5587C129.467 22.4201 129.472 22.2494 129.472 22.0467C129.472 21.9614 129.504 21.9027 129.568 21.8707C129.632 21.8281 129.691 21.8067 129.744 21.8067H131.984C132.4 21.8067 132.741 21.8761 133.008 22.0147C133.275 22.1427 133.493 22.3454 133.664 22.6227C133.835 22.9001 133.973 23.2627 134.08 23.7107C134.187 24.1481 134.283 24.6707 134.368 25.2787C134.464 25.8867 134.565 26.5907 134.672 27.3907C134.789 28.1801 134.939 29.0707 135.12 30.0627C135.291 29.4014 135.435 28.8521 135.552 28.4147C135.669 27.9774 135.765 27.6147 135.84 27.3267C135.925 27.0281 135.995 26.7827 136.048 26.5907C136.101 26.3987 136.149 26.2227 136.192 26.0627C136.235 25.8921 136.283 25.7107 136.336 25.5187C136.389 25.3267 136.453 25.0867 136.528 24.7987C136.603 24.5107 136.693 24.1534 136.8 23.7267C136.917 23.2894 137.061 22.7401 137.232 22.0787C137.253 22.0147 137.291 21.9561 137.344 21.9027C137.397 21.8387 137.493 21.8067 137.632 21.8067H140.128C140.469 21.8067 140.741 21.8441 140.944 21.9187C141.157 21.9827 141.323 22.0787 141.44 22.2067C141.557 22.3347 141.637 22.4947 141.68 22.6867C141.723 22.8681 141.744 23.0814 141.744 23.3267C141.744 23.5721 141.728 23.9721 141.696 24.5267C141.675 25.0707 141.637 25.6894 141.584 26.3827C141.541 27.0654 141.493 27.7747 141.44 28.5107C141.397 29.2467 141.349 29.9294 141.296 30.5587C141.253 31.1881 141.216 31.7214 141.184 32.1587C141.152 32.5961 141.131 32.8521 141.12 32.9267C141.109 33.0121 141.088 33.0761 141.056 33.1187C141.024 33.1507 140.96 33.1667 140.864 33.1667H139.984C139.376 33.1667 138.944 33.0494 138.688 32.8147C138.443 32.5694 138.32 32.2547 138.32 31.8707C138.32 31.7534 138.331 31.5401 138.352 31.2307C138.384 30.9214 138.421 30.5587 138.464 30.1427C138.507 29.7267 138.555 29.2734 138.608 28.7827C138.661 28.2814 138.709 27.7854 138.752 27.2947C138.795 26.8041 138.832 26.3294 138.864 25.8707C138.907 25.4014 138.939 24.9907 138.96 24.6387ZM146.805 33.3267C146.336 33.3267 145.866 33.2681 145.397 33.1507C144.938 33.0334 144.522 32.8307 144.149 32.5427C143.786 32.2547 143.488 31.8707 143.253 31.3907C143.018 30.9107 142.901 30.3081 142.901 29.5827C142.901 29.3161 142.922 28.9961 142.965 28.6227C143.008 28.2494 143.088 27.8654 143.205 27.4707C143.333 27.0761 143.504 26.6867 143.717 26.3027C143.941 25.9081 144.229 25.5561 144.581 25.2467C144.933 24.9374 145.36 24.6867 145.861 24.4947C146.362 24.3027 146.96 24.2067 147.653 24.2067C148.208 24.2067 148.677 24.2707 149.061 24.3987C149.445 24.5267 149.754 24.7027 149.989 24.9267C150.224 25.1401 150.394 25.3907 150.501 25.6787C150.608 25.9667 150.661 26.2761 150.661 26.6067C150.661 27.0974 150.56 27.5134 150.357 27.8547C150.165 28.1961 149.909 28.4841 149.589 28.7187C149.28 28.9427 148.933 29.1187 148.549 29.2467C148.165 29.3747 147.786 29.4761 147.413 29.5507C147.04 29.6147 146.693 29.6574 146.373 29.6787C146.064 29.6894 145.824 29.6947 145.653 29.6947C145.653 29.8974 145.68 30.1001 145.733 30.3027C145.797 30.4947 145.888 30.6654 146.005 30.8147C146.122 30.9641 146.277 31.0867 146.469 31.1827C146.661 31.2787 146.896 31.3267 147.173 31.3267C147.45 31.3267 147.664 31.2841 147.813 31.1987C147.973 31.1027 148.101 31.0014 148.197 30.8947C148.293 30.7774 148.373 30.6761 148.437 30.5907C148.512 30.4947 148.608 30.4467 148.725 30.4467C148.778 30.4467 148.869 30.4627 148.997 30.4947C149.136 30.5161 149.274 30.5694 149.413 30.6547C149.552 30.7401 149.674 30.8574 149.781 31.0067C149.888 31.1561 149.941 31.3481 149.941 31.5827C149.941 31.8921 149.845 32.1587 149.653 32.3827C149.461 32.6067 149.21 32.7881 148.901 32.9267C148.602 33.0654 148.266 33.1667 147.893 33.2307C147.52 33.2947 147.157 33.3267 146.805 33.3267ZM147.109 26.3347C146.874 26.3347 146.672 26.4041 146.501 26.5427C146.341 26.6707 146.202 26.8361 146.085 27.0387C145.978 27.2414 145.893 27.4654 145.829 27.7107C145.776 27.9561 145.733 28.1907 145.701 28.4147C146.362 28.4041 146.896 28.2921 147.301 28.0787C147.717 27.8654 147.925 27.5614 147.925 27.1667C147.925 26.9534 147.856 26.7614 147.717 26.5907C147.589 26.4201 147.386 26.3347 147.109 26.3347ZM157.081 31.7587C157.081 31.5241 157.097 31.2201 157.129 30.8467C157.171 30.4627 157.209 30.0627 157.241 29.6467C157.283 29.2201 157.321 28.8094 157.353 28.4147C157.395 28.0201 157.417 27.6894 157.417 27.4227C157.417 27.1454 157.347 26.9001 157.209 26.6867C157.081 26.4627 156.825 26.3507 156.441 26.3507C156.067 26.3507 155.758 26.4414 155.513 26.6227C155.267 26.8041 155.059 27.1347 154.889 27.6147C154.729 28.0947 154.595 28.7561 154.489 29.5987C154.382 30.4414 154.281 31.5241 154.185 32.8467C154.174 32.9747 154.147 33.0601 154.105 33.1027C154.062 33.1454 153.971 33.1667 153.833 33.1667H153.257C152.926 33.1667 152.654 33.1347 152.441 33.0707C152.238 32.9961 152.073 32.8947 151.945 32.7667C151.827 32.6387 151.742 32.4841 151.689 32.3027C151.646 32.1107 151.625 31.8921 151.625 31.6467C151.625 31.4867 151.63 31.2627 151.641 30.9747C151.662 30.6761 151.694 30.2707 151.737 29.7587C151.779 29.2361 151.827 28.5801 151.881 27.7907C151.945 26.9907 152.019 26.0041 152.105 24.8307C152.115 24.5961 152.142 24.4574 152.185 24.4147C152.217 24.3827 152.302 24.3667 152.441 24.3667H153.065C153.385 24.3667 153.646 24.4041 153.849 24.4787C154.062 24.5534 154.233 24.6547 154.361 24.7827C154.489 24.9001 154.579 25.0441 154.633 25.2147C154.686 25.3747 154.718 25.5401 154.729 25.7107C155.059 25.1454 155.438 24.7561 155.865 24.5427C156.291 24.3187 156.825 24.2067 157.465 24.2067C157.913 24.2067 158.302 24.2547 158.633 24.3507C158.963 24.4467 159.235 24.6121 159.449 24.8467C159.673 25.0707 159.838 25.3694 159.945 25.7427C160.051 26.1054 160.105 26.5587 160.105 27.1027C160.105 27.2734 160.094 27.5187 160.073 27.8387C160.051 28.1587 160.025 28.5107 159.993 28.8947C159.961 29.2681 159.923 29.6627 159.881 30.0787C159.849 30.4841 159.817 30.8627 159.785 31.2147C159.753 31.5667 159.726 31.8761 159.705 32.1427C159.683 32.4094 159.673 32.5854 159.673 32.6707C159.673 32.9054 159.646 33.0494 159.593 33.1027C159.539 33.1454 159.422 33.1667 159.241 33.1667H158.729C158.387 33.1667 158.11 33.1347 157.897 33.0707C157.683 33.0067 157.518 32.9161 157.401 32.7987C157.283 32.6814 157.198 32.5374 157.145 32.3667C157.102 32.1854 157.081 31.9827 157.081 31.7587ZM164.587 25.7267C164.587 25.9507 164.566 26.2654 164.523 26.6707C164.491 27.0761 164.454 27.4974 164.411 27.9347C164.379 28.3721 164.342 28.7827 164.299 29.1667C164.267 29.5507 164.251 29.8281 164.251 29.9987C164.251 30.3721 164.342 30.6654 164.523 30.8787C164.715 31.0814 164.976 31.1827 165.307 31.1827C165.595 31.1827 165.835 31.0707 166.027 30.8467C166.23 30.6121 166.39 30.3134 166.507 29.9507C166.635 29.5774 166.736 29.1561 166.811 28.6867C166.886 28.2174 166.939 27.7427 166.971 27.2627C167.014 26.7827 167.046 26.3187 167.067 25.8707C167.099 25.4121 167.131 25.0174 167.163 24.6867C167.174 24.6014 167.206 24.5267 167.259 24.4627C167.312 24.3987 167.398 24.3667 167.515 24.3667H168.091C168.422 24.3667 168.688 24.4041 168.891 24.4787C169.104 24.5427 169.27 24.6387 169.387 24.7667C169.515 24.8947 169.6 25.0547 169.643 25.2467C169.696 25.4281 169.723 25.6414 169.723 25.8867C169.723 26.0467 169.712 26.2761 169.691 26.5747C169.68 26.8627 169.654 27.2681 169.611 27.7907C169.568 28.3027 169.515 28.9587 169.451 29.7587C169.398 30.5481 169.328 31.5294 169.243 32.7027C169.222 32.9267 169.195 33.0601 169.163 33.1027C169.142 33.1454 169.056 33.1667 168.907 33.1667H168.283C167.963 33.1667 167.696 33.1294 167.483 33.0547C167.28 32.9801 167.115 32.8841 166.987 32.7667C166.859 32.6494 166.768 32.5107 166.715 32.3507C166.662 32.1907 166.63 32.0254 166.619 31.8547C166.459 32.1321 166.278 32.3667 166.075 32.5587C165.883 32.7507 165.68 32.9054 165.467 33.0227C165.254 33.1294 165.035 33.2041 164.811 33.2467C164.587 33.3001 164.368 33.3267 164.155 33.3267C163.75 33.3267 163.387 33.2627 163.067 33.1347C162.747 32.9961 162.475 32.8147 162.251 32.5907C162.038 32.3667 161.872 32.1001 161.755 31.7907C161.638 31.4814 161.579 31.1507 161.579 30.7987C161.579 30.6601 161.584 30.4361 161.595 30.1267C161.616 29.8067 161.638 29.4494 161.659 29.0547C161.691 28.6601 161.723 28.2441 161.755 27.8067C161.787 27.3587 161.814 26.9374 161.835 26.5427C161.867 26.1481 161.894 25.8014 161.915 25.5027C161.947 25.2041 161.968 24.9907 161.979 24.8627C162 24.6707 162.043 24.5427 162.107 24.4787C162.171 24.4041 162.278 24.3667 162.427 24.3667H162.939C163.27 24.3667 163.542 24.3987 163.755 24.4627C163.968 24.5267 164.134 24.6174 164.251 24.7347C164.379 24.8521 164.464 24.9961 164.507 25.1667C164.56 25.3267 164.587 25.5134 164.587 25.7267Z" fill="url(#paint4_linear_183_5463)"/>
</g>
<defs>
<filter id="filter0_d_183_5463" x="0" y="0" width="310" height="409" filterUnits="userSpaceOnUse" color-interpolation-filters="sRGB">
<feFlood flood-opacity="0" result="BackgroundImageFix"/>
<feColorMatrix in="SourceAlpha" type="matrix" values="0 0 0 0 0 0 0 0 0 0 0 0 0 0 0 0 0 0 127 0" result="hardAlpha"/>
<feOffset dy="4"/>
<feGaussianBlur stdDeviation="6"/>
<feComposite in2="hardAlpha" operator="out"/>
<feColorMatrix type="matrix" values="0 0 0 0 0.00877781 0 0 0 0 0.384371 0 0 0 0 0.658333 0 0 0 1 0"/>
<feBlend mode="normal" in2="BackgroundImageFix" result="effect1_dropShadow_183_5463"/>
<feBlend mode="normal" in="SourceGraphic" in2="effect1_dropShadow_183_5463" result="shape"/>
</filter>
<linearGradient id="paint0_linear_183_5463" x1="149.5" y1="-25.4348" x2="149.5" y2="377" gradientUnits="userSpaceOnUse">
<stop stop-color="#70E8FF"/>
<stop offset="0.911541" stop-color="#39A1E0"/>
<stop offset="1" stop-color="#3597D6"/>
</linearGradient>
<linearGradient id="paint1_linear_183_5463" x1="148.5" y1="-32.7199" x2="148.5" y2="334.563" gradientUnits="userSpaceOnUse">
<stop stop-color="#D8F0F4"/>
<stop offset="0.639961" stop-color="#F9FAFC"/>
</linearGradient>
<linearGradient id="paint2_linear_183_5463" x1="149.257" y1="59.6046" x2="149.257" y2="0.0381453" gradientUnits="userSpaceOnUse">
<stop stop-color="#70E8FF"/>
<stop offset="1" stop-color="#39A1E0"/>
</linearGradient>
<linearGradient id="paint3_linear_183_5463" x1="148.5" y1="42.3749" x2="148.5" y2="-30.6147" gradientUnits="userSpaceOnUse">
<stop offset="0.184" stop-color="#09589D"/>
<stop offset="1" stop-color="#16007A"/>
</linearGradient>
<linearGradient id="paint4_linear_183_5463" x1="149.5" y1="17.1667" x2="149.5" y2="38.9376" gradientUnits="userSpaceOnUse">
<stop stop-color="#FCFEF5"/>
<stop offset="1" stop-color="#FFFFA7"/>
</linearGradient>
</defs>
</svg>
