<svg xmlns="http://www.w3.org/2000/svg" aria-hidden="true" style="position:absolute;width:0;height:0;overflow:hidden">
  <defs>
    <symbol id="icon-Home" viewBox="0 0 110 32">
      <path fill="#001f6f" d="M19.769 29.714c-1.536 0-2.633-.302-3.291-.905s-.987-1.467-.987-2.592c0-.603.055-1.673.165-3.209l.37-5.184H8.703L7.88 29.097c-.027.219-.082.384-.165.494-.082.082-.247.123-.494.123H4.958c-1.536 0-2.633-.302-3.291-.905S.68 27.342.68 26.217c0-.549.041-1.481.123-2.798.082-1.344.192-2.866.329-4.567s.274-3.497.411-5.39c.137-1.893.274-3.675.411-5.349s.247-3.141.329-4.402c.082-1.262.123-2.126.123-2.592 0-.411.219-.617.658-.617h2.263c1.673 0 2.798.357 3.374 1.07s.864 1.769.864 3.168c0 .219-.041 1.001-.123 2.345a442.42 442.42 0 0 1-.329 4.773h7.365c.082-1.207.165-2.386.247-3.538.11-1.152.192-2.208.247-3.168.082-.96.137-1.783.165-2.469.055-.713.082-1.234.082-1.563 0-.411.219-.617.658-.617h2.263c1.673 0 2.798.357 3.374 1.07s.864 1.769.864 3.168c0 .137-.027.576-.082 1.317-.027.741-.082 1.673-.165 2.798s-.178 2.386-.288 3.785a269.555 269.555 0 0 1-.288 4.238 193.82 193.82 0 0 1-.288 4.279 289.095 289.095 0 0 1-.247 3.744l-.206 2.839c-.055.741-.096 1.193-.123 1.358-.027.219-.082.384-.165.494-.082.082-.247.123-.494.123h-2.263zm17.236.412c-1.893 0-3.47-.261-4.731-.782-1.234-.549-2.222-1.289-2.962-2.222s-1.262-2.016-1.563-3.25a17.283 17.283 0 0 1-.453-4.032c0-1.646.192-3.25.576-4.814.411-1.591 1.097-3.003 2.057-4.238s2.222-2.222 3.785-2.962c1.591-.768 3.566-1.152 5.925-1.152 3.456 0 5.925.85 7.406 2.551 1.509 1.673 2.263 4.032 2.263 7.077 0 .85-.069 1.797-.206 2.839a13.612 13.612 0 0 1-.699 3.045 13.191 13.191 0 0 1-1.399 2.962c-.576.96-1.317 1.81-2.222 2.551s-2.002 1.33-3.291 1.769c-1.262.439-2.757.658-4.485.658zm1.934-17.98c-1.042 0-1.879.274-2.51.823a5.246 5.246 0 0 0-1.399 1.934 9.534 9.534 0 0 0-.617 2.386 21.68 21.68 0 0 0-.123 2.098c0 1.81.288 3.141.864 3.991s1.399 1.275 2.469 1.275c.96 0 1.742-.302 2.345-.905a5.93 5.93 0 0 0 1.44-2.181c.357-.85.59-1.742.699-2.674.137-.933.206-1.714.206-2.345 0-1.371-.261-2.441-.782-3.209-.494-.795-1.358-1.193-2.592-1.193zm20.557 10.163a120.008 120.008 0 0 1-.288 3.621 91.7 91.7 0 0 0-.247 2.962c-.027.329-.096.549-.206.658s-.343.165-.699.165h-1.481c-.85 0-1.55-.082-2.098-.247-.521-.192-.946-.453-1.275-.782a2.975 2.975 0 0 1-.658-1.193 7.797 7.797 0 0 1-.165-1.687c0-.411.014-.987.041-1.728.055-.768.137-1.81.247-3.127.11-1.344.233-3.031.37-5.061.165-2.057.357-4.594.576-7.611.027-.603.096-.96.206-1.07.082-.082.302-.123.658-.123h1.605c.823 0 1.495.096 2.016.288s.946.439 1.275.741c.329.302.562.658.699 1.07s.219.837.247 1.275c.795-1.481 1.701-2.482 2.715-3.003s2.208-.782 3.579-.782c.741 0 1.454.069 2.139.206s1.303.37 1.851.699a4.553 4.553 0 0 1 1.399 1.317c.384.521.658 1.193.823 2.016.85-1.591 1.783-2.688 2.798-3.291 1.015-.631 2.29-.946 3.826-.946.85 0 1.659.096 2.427.288.795.165 1.481.466 2.057.905s1.029 1.042 1.358 1.81c.357.741.535 1.673.535 2.798 0 .85-.041 1.893-.123 3.127s-.178 2.578-.288 4.032c-.11 1.426-.233 2.907-.37 4.443a136.861 136.861 0 0 0-.329 4.361c-.027.302-.055.535-.082.699s-.082.288-.165.37c-.055.082-.151.137-.288.165s-.329.041-.576.041h-1.317c-.878 0-1.591-.082-2.139-.247s-.974-.398-1.275-.699a2.663 2.663 0 0 1-.658-1.111 6.816 6.816 0 0 1-.165-1.563c0-.357.014-.864.041-1.522.055-.658.11-1.371.165-2.139a60.43 60.43 0 0 0 .206-2.386c.082-.823.151-1.577.206-2.263.082-.713.137-1.33.165-1.851.055-.521.082-.864.082-1.029 0-.713-.151-1.344-.453-1.893-.274-.549-.823-.823-1.646-.823-.713 0-1.33.233-1.851.699s-.96 1.111-1.317 1.934-.645 1.797-.864 2.921-.37 2.345-.453 3.662c-.055.85-.123 1.824-.206 2.921s-.178 2.469-.288 4.114c-.027.302-.055.535-.082.699s-.082.288-.165.37c-.055.082-.151.137-.288.165s-.329.041-.576.041H69.41c-.878 0-1.591-.082-2.139-.247s-.974-.398-1.275-.699a2.663 2.663 0 0 1-.658-1.111 6.816 6.816 0 0 1-.165-1.563c0-.549.041-1.344.123-2.386.11-1.07.206-2.167.288-3.291.11-1.152.206-2.235.288-3.25.11-1.042.165-1.797.165-2.263 0-.713-.151-1.344-.453-1.893-.274-.549-.823-.823-1.646-.823-.741 0-1.371.274-1.893.823s-.96 1.289-1.317 2.222c-.329.905-.603 1.975-.823 3.209a41.665 41.665 0 0 0-.411 3.867zm39.512 7.817c-1.207 0-2.414-.151-3.621-.453a8.765 8.765 0 0 1-3.209-1.563c-.933-.741-1.701-1.728-2.304-2.962s-.905-2.784-.905-4.649c0-.686.055-1.509.165-2.469s.315-1.947.617-2.962a16.886 16.886 0 0 1 1.317-3.003c.576-1.015 1.317-1.92 2.222-2.715s2.002-1.44 3.291-1.934c1.289-.494 2.825-.741 4.608-.741 1.426 0 2.633.165 3.621.494s1.783.782 2.386 1.358c.603.549 1.042 1.193 1.317 1.934s.411 1.536.411 2.386c0 1.262-.261 2.331-.782 3.209a6.964 6.964 0 0 1-1.975 2.222c-.795.576-1.687 1.029-2.674 1.358s-1.961.59-2.921.782c-.96.165-1.851.274-2.674.329a58.61 58.61 0 0 1-1.851.041c0 .521.069 1.042.206 1.563.165.494.398.933.699 1.317s.699.699 1.193.946c.494.247 1.097.37 1.81.37s1.262-.11 1.646-.329c.411-.247.741-.507.987-.782.247-.302.453-.562.617-.782a.897.897 0 0 1 .741-.37c.137 0 .37.041.699.123.357.055.713.192 1.07.411s.672.521.946.905c.274.384.411.878.411 1.481 0 .795-.247 1.481-.741 2.057s-1.138 1.042-1.934 1.399c-.768.357-1.632.617-2.592.782s-1.893.247-2.798.247zm.782-17.98c-.603 0-1.125.178-1.563.535a4.497 4.497 0 0 0-1.07 1.275 8.05 8.05 0 0 0-.658 1.728 25.47 25.47 0 0 0-.329 1.81c1.701-.027 3.072-.315 4.114-.864 1.07-.549 1.605-1.33 1.605-2.345 0-.549-.178-1.042-.535-1.481-.329-.439-.85-.658-1.563-.658z" style="fill:var(--color1, #001f6f)"/>
    </symbol>
    <symbol id="icon-Group-2-hover" viewBox="0 0 40 32">
      <path stroke-width=".941" d="M6.588 2.353h27.294a2.352 2.352 0 1 1 0 4.706H6.588a2.352 2.352 0 1 1 0-4.706zm0 9.412h27.294a2.352 2.352 0 1 1 0 4.706H6.588a2.352 2.352 0 1 1 0-4.706zm0 9.411h27.294a2.352 2.352 0 1 1 0 4.706H6.588a2.352 2.352 0 1 1 0-4.706z"/>
    </symbol>
  </defs>
</svg>
