<svg xmlns="http://www.w3.org/2000/svg" aria-hidden="true" style="position:absolute;width:0;height:0;overflow:hidden">
  <defs>
    <symbol id="icon-Group-27-1" viewBox="0 0 43 32">
      <path stroke-width="1.231" d="M3.692.615h35.692a3.077 3.077 0 0 1 0 6.154H3.692a3.077 3.077 0 0 1 0-6.154zm0 12.308h35.692a3.077 3.077 0 0 1 0 6.154H3.692a3.077 3.077 0 0 1 0-6.154zm0 12.308h35.692a3.077 3.077 0 0 1 0 6.154H3.692a3.077 3.077 0 0 1 0-6.154z"/>
    </symbol>
    <symbol id="icon-Group-27" viewBox="0 0 40 32">
      <path stroke-width=".941" d="M6.588 2.353h27.294a2.352 2.352 0 1 1 0 4.706H6.588a2.352 2.352 0 1 1 0-4.706zm0 9.412h27.294a2.352 2.352 0 1 1 0 4.706H6.588a2.352 2.352 0 1 1 0-4.706zm0 9.411h27.294a2.352 2.352 0 1 1 0 4.706H6.588a2.352 2.352 0 1 1 0-4.706z"/>
    </symbol>
    <symbol id="icon-Group-271" viewBox="0 0 40 32">
      <path stroke-width=".941" d="M6.588 2.353h27.294a2.352 2.352 0 1 1 0 4.706H6.588a2.352 2.352 0 1 1 0-4.706zm0 9.412h27.294a2.352 2.352 0 1 1 0 4.706H6.588a2.352 2.352 0 1 1 0-4.706zm0 9.411h27.294a2.352 2.352 0 1 1 0 4.706H6.588a2.352 2.352 0 1 1 0-4.706z"/>
    </symbol>
  </defs>
</svg>
