<svg width="320" height="289" viewBox="0 0 320 289" fill="none" xmlns="http://www.w3.org/2000/svg">
<mask id="path-1-inside-1_3010_1485" fill="white">
<path fill-rule="evenodd" clip-rule="evenodd" d="M20 0C8.95431 0 0 8.9543 0 20V240C0 251.046 8.95431 260 20 260H33.468L35.6033 284.492C35.8676 287.522 39.2842 289.16 41.8126 287.469L81.0544 261.213C81.5669 260.87 81.9617 260.455 82.248 260H300C311.046 260 320 251.046 320 240V20C320 8.95431 311.046 0 300 0H20Z"/>
</mask>
<path fill-rule="evenodd" clip-rule="evenodd" d="M20 0C8.95431 0 0 8.9543 0 20V240C0 251.046 8.95431 260 20 260H33.468L35.6033 284.492C35.8676 287.522 39.2842 289.16 41.8126 287.469L81.0544 261.213C81.5669 260.87 81.9617 260.455 82.248 260H300C311.046 260 320 251.046 320 240V20C320 8.95431 311.046 0 300 0H20Z" fill="url(#paint0_linear_3010_1485)"/>
<path d="M33.468 260L43.4302 259.131L42.634 250H33.468V260ZM35.6033 284.492L25.6411 285.36L25.6411 285.36L35.6033 284.492ZM41.8126 287.469L47.3735 295.78L47.3735 295.78L41.8126 287.469ZM81.0544 261.213L75.4936 252.901L75.4935 252.901L81.0544 261.213ZM82.248 260V250H76.723L73.7822 254.677L82.248 260ZM10 20C10 14.4772 14.4772 10 20 10V-10C3.43146 -10 -10 3.43146 -10 20H10ZM10 240V20H-10V240H10ZM20 250C14.4772 250 10 245.523 10 240H-10C-10 256.569 3.43146 270 20 270V250ZM33.468 250H20V270H33.468V250ZM45.5656 283.623L43.4302 259.131L23.5058 260.869L25.6411 285.36L45.5656 283.623ZM36.2517 279.157C40.0443 276.62 45.1692 279.077 45.5656 283.623L25.6411 285.36C26.566 295.968 38.5241 301.701 47.3735 295.78L36.2517 279.157ZM75.4935 252.901L36.2517 279.157L47.3735 295.78L86.6153 269.524L75.4935 252.901ZM73.7822 254.677C74.2592 253.919 74.8631 253.323 75.4936 252.901L86.6152 269.524C88.2707 268.416 89.6643 266.992 90.7137 265.323L73.7822 254.677ZM300 250H82.248V270H300V250ZM310 240C310 245.523 305.523 250 300 250V270C316.569 270 330 256.569 330 240H310ZM310 20V240H330V20H310ZM300 10C305.523 10 310 14.4772 310 20H330C330 3.43146 316.569 -10 300 -10V10ZM20 10H300V-10H20V10Z" fill="url(#paint1_linear_3010_1485)" mask="url(#path-1-inside-1_3010_1485)"/>
<defs>
<linearGradient id="paint0_linear_3010_1485" x1="160" y1="0" x2="160" y2="260" gradientUnits="userSpaceOnUse">
<stop stop-color="#FEFCD9"/>
<stop offset="1" stop-color="white"/>
</linearGradient>
<linearGradient id="paint1_linear_3010_1485" x1="160" y1="0" x2="160" y2="288.149" gradientUnits="userSpaceOnUse">
<stop stop-color="#ECD44E"/>
<stop offset="1" stop-color="#B49801"/>
</linearGradient>
</defs>
</svg>
