<svg width="85" height="30" viewBox="0 0 85 30" fill="none" xmlns="http://www.w3.org/2000/svg">
<path d="M30.3231 15C30.3231 23.0081 23.5351 29.5 15.1616 29.5C6.78806 29.5 0 23.0081 0 15C0 6.99187 6.78806 0.5 15.1616 0.5C23.5351 0.5 30.3231 6.99187 30.3231 15Z" fill="white"/>
<path d="M26.1846 8.18803C23.2746 11.0825 20.5377 13.8025 17.6277 16.6939C16.5989 14.8673 15.6267 13.1814 14.6978 11.4772C13.1595 8.65616 12.3072 8.56437 9.99982 10.9662C7.77571 13.2824 5.52162 15.5741 2.99119 18.1717C2.99119 14.9101 2.96123 12.031 3.03115 9.15489C3.03781 8.81832 3.51393 8.37773 3.89016 8.18191C7.20969 6.45626 10.5359 4.73367 13.922 3.1151C14.4947 2.84279 15.4902 2.85197 16.0695 3.12428C19.4057 4.70919 22.6786 6.41342 26.1846 8.18497V8.18803Z" fill="#CD0F2F"/>
<path d="M3.84341 21.2318C6.74675 18.3435 9.48028 15.6235 12.3936 12.726C13.4624 14.6627 14.4579 16.4924 15.4734 18.3099C16.8019 20.6811 17.6276 20.7974 19.5987 18.8208C21.9826 16.4343 24.3166 14.0018 26.9802 11.2726C26.9802 14.5373 27.0168 17.4042 26.9336 20.2711C26.9236 20.6352 26.3676 21.1033 25.9414 21.3267C22.7218 23.0034 19.4955 24.6709 16.2059 26.2313C15.5833 26.5281 14.5245 26.5801 13.9219 26.2956C10.5857 24.7199 7.32609 23.0064 3.84008 21.2349L3.84341 21.2318Z" fill="#CD0F2F"/>
<path d="M45.8561 10.3366V18.9271H44.6592L40.1372 12.3013V18.9271H38.9465V10.3366H40.1372L44.6777 16.9801V10.3366H45.8561Z" fill="white"/>
<path d="M52.7533 16.7559C52.7533 16.5553 52.7204 16.3783 52.6546 16.2249C52.5929 16.0675 52.4819 15.9259 52.3215 15.8C52.1652 15.6742 51.9472 15.5542 51.6675 15.4401C51.392 15.3261 51.0424 15.21 50.6187 15.092C50.1746 14.9662 49.7736 14.8265 49.4157 14.6731C49.0579 14.5158 48.7515 14.3368 48.4965 14.1362C48.2415 13.9356 48.0462 13.7055 47.9104 13.4459C47.7747 13.1863 47.7069 12.8894 47.7069 12.555C47.7069 12.2207 47.7788 11.9119 47.9228 11.6287C48.0667 11.3455 48.2724 11.0997 48.5397 10.8912C48.8111 10.6788 49.134 10.5136 49.5083 10.3956C49.8825 10.2776 50.3 10.2186 50.7606 10.2186C51.4351 10.2186 52.0068 10.3425 52.4757 10.5903C52.9487 10.8342 53.3085 11.1547 53.5553 11.552C53.8021 11.9453 53.9255 12.3662 53.9255 12.8146H52.741C52.741 12.4921 52.669 12.2069 52.525 11.9591C52.3811 11.7074 52.1631 11.5107 51.8711 11.3691C51.5791 11.2236 51.2089 11.1508 50.7606 11.1508C50.337 11.1508 49.9874 11.2118 49.7119 11.3337C49.4363 11.4556 49.2307 11.6208 49.0949 11.8293C48.9633 12.0378 48.8975 12.2757 48.8975 12.5432C48.8975 12.7241 48.9366 12.8893 49.0147 13.0388C49.097 13.1844 49.2224 13.3201 49.3911 13.4459C49.5638 13.5718 49.7818 13.6878 50.045 13.794C50.3123 13.9002 50.6311 14.0025 51.0012 14.1008C51.5112 14.2385 51.9513 14.3919 52.3215 14.561C52.6916 14.7302 52.996 14.9209 53.2345 15.1333C53.4772 15.3418 53.6561 15.5798 53.7712 15.8472C53.8905 16.1108 53.9501 16.4097 53.9501 16.7441C53.9501 17.0941 53.8761 17.4108 53.728 17.694C53.58 17.9772 53.3682 18.2191 53.0926 18.4197C52.8171 18.6203 52.486 18.7757 52.0994 18.8858C51.7169 18.992 51.2891 19.0451 50.8162 19.0451C50.4008 19.0451 49.9915 18.99 49.5885 18.8799C49.1895 18.7697 48.8255 18.6045 48.4965 18.3843C48.1716 18.164 47.9104 17.8926 47.713 17.5701C47.5197 17.2436 47.4231 16.866 47.4231 16.4373H48.6076C48.6076 16.7323 48.6672 16.986 48.7865 17.1984C48.9057 17.4068 49.0682 17.5799 49.2738 17.7176C49.4836 17.8552 49.7201 17.9575 49.9833 18.0244C50.2506 18.0873 50.5283 18.1188 50.8162 18.1188C51.2316 18.1188 51.5832 18.0637 51.8711 17.9536C52.159 17.8434 52.377 17.6861 52.525 17.4816C52.6772 17.277 52.7533 17.0351 52.7533 16.7559Z" fill="white"/>
<path d="M58.7868 10.3366V18.9271H57.6147V10.3366H58.7868ZM61.674 10.3366V11.2688H54.7336V10.3366H61.674Z" fill="white"/>
<path d="M65.8383 11.0977L62.8647 18.9271H61.6494L65.0733 10.3366H65.8568L65.8383 11.0977ZM68.3307 18.9271L65.3509 11.0977L65.3324 10.3366H66.1159L69.5522 18.9271H68.3307ZM68.1764 15.7469V16.6792H63.13V15.7469H68.1764Z" fill="white"/>
<path d="M77.3193 14.6495V17.7943C77.2082 17.9516 77.0314 18.1286 76.7887 18.3253C76.5461 18.518 76.2109 18.6871 75.7831 18.8327C75.3595 18.9743 74.8125 19.0451 74.1421 19.0451C73.5951 19.0451 73.0913 18.9546 72.6306 18.7737C72.1741 18.5888 71.7772 18.3213 71.44 17.9713C71.1068 17.6173 70.8477 17.1885 70.6627 16.6851C70.4817 16.1777 70.3912 15.6034 70.3912 14.9622V14.2955C70.3912 13.6544 70.4693 13.0821 70.6256 12.5786C70.786 12.0751 71.0205 11.6484 71.3289 11.2983C71.6374 10.9443 72.0158 10.6768 72.4641 10.4959C72.9124 10.311 73.4265 10.2186 74.0064 10.2186C74.6932 10.2186 75.267 10.3327 75.7276 10.5608C76.1924 10.785 76.5543 11.0957 76.8134 11.493C77.0766 11.8903 77.2452 12.3426 77.3193 12.85H76.1286C76.0751 12.5393 75.9682 12.2561 75.8078 12.0004C75.6515 11.7447 75.4274 11.5402 75.1354 11.3868C74.8433 11.2295 74.467 11.1508 74.0064 11.1508C73.591 11.1508 73.2311 11.2236 72.9268 11.3691C72.6224 11.5146 72.3715 11.7231 72.1741 11.9945C71.9767 12.2659 71.8286 12.5943 71.7299 12.9798C71.6353 13.3653 71.588 13.7999 71.588 14.2837V14.9622C71.588 15.4578 71.6477 15.9004 71.7669 16.2898C71.8903 16.6792 72.0651 17.0115 72.2913 17.2869C72.5175 17.5583 72.7869 17.7648 73.0995 17.9064C73.4162 18.048 73.7658 18.1188 74.1483 18.1188C74.5719 18.1188 74.9153 18.0853 75.1785 18.0185C75.4418 17.9477 75.6474 17.8651 75.7955 17.7707C75.9435 17.6723 76.0566 17.5799 76.1348 17.4934V15.5699H74.0557V14.6495H77.3193Z" fill="white"/>
<path d="M85 18.0008V18.9271H80.2435V18.0008H85ZM80.4841 10.3366V18.9271H79.2934V10.3366H80.4841ZM84.3707 14.03V14.9563H80.2435V14.03H84.3707ZM84.9383 10.3366V11.2688H80.2435V10.3366H84.9383Z" fill="white"/>
</svg>
