<svg xmlns="http://www.w3.org/2000/svg" aria-hidden="true" style="position:absolute;width:0;height:0;overflow:hidden">
  <defs>

    <symbol id="icon-Group-27" viewBox="0 0 40 32">
      <path stroke-width=".941" d="M6.588 2.353h27.294a2.352 2.352 0 1 1 0 4.706H6.588a2.352 2.352 0 1 1 0-4.706zm0 9.412h27.294a2.352 2.352 0 1 1 0 4.706H6.588a2.352 2.352 0 1 1 0-4.706zm0 9.411h27.294a2.352 2.352 0 1 1 0 4.706H6.588a2.352 2.352 0 1 1 0-4.706z"/>
    </symbol>

        <symbol id="icon-Group-2-hover" viewBox="0 0 40 32">
      <path stroke-width=".941" d="M6.588 2.353h27.294a2.352 2.352 0 1 1 0 4.706H6.588a2.352 2.352 0 1 1 0-4.706zm0 9.412h27.294a2.352 2.352 0 1 1 0 4.706H6.588a2.352 2.352 0 1 1 0-4.706zm0 9.411h27.294a2.352 2.352 0 1 1 0 4.706H6.588a2.352 2.352 0 1 1 0-4.706z"/>
    </symbol>
  </defs>
</svg>
