<svg width="40" height="41" viewBox="0 0 40 41" fill="none" xmlns="http://www.w3.org/2000/svg">
<g filter="url(#filter0_i_138_3358)">
<circle cx="20" cy="20" r="20" fill="url(#paint0_linear_138_3358)"/>
</g>
<circle cx="20" cy="20" r="19.5" stroke="#3CBB0C"/>
<g filter="url(#filter1_f_138_3358)">
<path d="M11.3512 8.64898C10.8108 9.72977 7.77178 11.7107 7.02692 10.8111C6.28207 9.91162 6.79443 7.48158 8.64854 5.94628C10.5027 4.41097 13.3092 3.96537 14.054 4.8649C14.7989 5.76443 12.4323 7.02736 11.3512 8.64898Z" fill="white"/>
</g>
<g filter="url(#filter2_f_138_3358)">
<path d="M29.0473 31.0093C29.269 30.3152 31.0174 29.2655 31.6155 29.9729C32.2136 30.6803 32.1754 32.3172 31.1487 33.1853C30.122 34.0533 28.338 34.059 27.7399 33.3516C27.1418 32.6442 28.5375 32.0215 29.0473 31.0093Z" fill="#F5FF83"/>
</g>
<g filter="url(#filter3_f_138_3358)">
<path d="M5.40552 14.5945C4.7735 15.1178 4.15289 15.5806 3.78384 15.135C3.41479 14.6893 3.69241 12.9557 4.32443 12.4323C5.11067 11.7812 6.11748 11.4462 6.48653 11.8919C6.85558 12.3375 6.03755 14.0711 5.40552 14.5945Z" fill="white"/>
</g>
<g filter="url(#filter4_d_138_3358)">
<mask id="path-6-inside-1_138_3358" fill="white">
<path fill-rule="evenodd" clip-rule="evenodd" d="M24.2162 11.7838C24.2162 9.69406 22.5221 8 20.4324 8C18.3426 8 16.6486 9.69406 16.6486 11.7838V16.6486H11.7837C9.694 16.6486 7.99994 18.3427 7.99994 20.4324C7.99994 22.5222 9.694 24.2162 11.7837 24.2162H16.6486V29.0811C16.6486 31.1708 18.3426 32.8649 20.4324 32.8649C22.5221 32.8649 24.2162 31.1708 24.2162 29.0811V24.2162H29.081C31.1707 24.2162 32.8648 22.5222 32.8648 20.4324C32.8648 18.3427 31.1707 16.6486 29.081 16.6486H24.2162V11.7838Z"/>
</mask>
<path fill-rule="evenodd" clip-rule="evenodd" d="M24.2162 11.7838C24.2162 9.69406 22.5221 8 20.4324 8C18.3426 8 16.6486 9.69406 16.6486 11.7838V16.6486H11.7837C9.694 16.6486 7.99994 18.3427 7.99994 20.4324C7.99994 22.5222 9.694 24.2162 11.7837 24.2162H16.6486V29.0811C16.6486 31.1708 18.3426 32.8649 20.4324 32.8649C22.5221 32.8649 24.2162 31.1708 24.2162 29.0811V24.2162H29.081C31.1707 24.2162 32.8648 22.5222 32.8648 20.4324C32.8648 18.3427 31.1707 16.6486 29.081 16.6486H24.2162V11.7838Z" fill="white"/>
<path d="M16.6486 16.6486V17.6486H17.6486V16.6486H16.6486ZM16.6486 24.2162H17.6486V23.2162H16.6486V24.2162ZM24.2162 24.2162V23.2162H23.2162V24.2162H24.2162ZM24.2162 16.6486H23.2162V17.6486H24.2162V16.6486ZM20.4324 9C21.9698 9 23.2162 10.2463 23.2162 11.7838H25.2162C25.2162 9.14177 23.0744 7 20.4324 7V9ZM17.6486 11.7838C17.6486 10.2463 18.8949 9 20.4324 9V7C17.7904 7 15.6486 9.14177 15.6486 11.7838H17.6486ZM17.6486 16.6486V11.7838H15.6486V16.6486H17.6486ZM11.7837 17.6486H16.6486V15.6486H11.7837V17.6486ZM8.99994 20.4324C8.99994 18.895 10.2463 17.6486 11.7837 17.6486V15.6486C9.14171 15.6486 6.99994 17.7904 6.99994 20.4324H8.99994ZM11.7837 23.2162C10.2463 23.2162 8.99994 21.9699 8.99994 20.4324H6.99994C6.99994 23.0744 9.14171 25.2162 11.7837 25.2162V23.2162ZM16.6486 23.2162H11.7837V25.2162H16.6486V23.2162ZM17.6486 29.0811V24.2162H15.6486V29.0811H17.6486ZM20.4324 31.8649C18.8949 31.8649 17.6486 30.6185 17.6486 29.0811H15.6486C15.6486 31.7231 17.7904 33.8649 20.4324 33.8649V31.8649ZM23.2162 29.0811C23.2162 30.6185 21.9698 31.8649 20.4324 31.8649V33.8649C23.0744 33.8649 25.2162 31.7231 25.2162 29.0811H23.2162ZM23.2162 24.2162V29.0811H25.2162V24.2162H23.2162ZM29.081 23.2162H24.2162V25.2162H29.081V23.2162ZM31.8648 20.4324C31.8648 21.9699 30.6185 23.2162 29.081 23.2162V25.2162C31.723 25.2162 33.8648 23.0744 33.8648 20.4324H31.8648ZM29.081 17.6486C30.6185 17.6486 31.8648 18.895 31.8648 20.4324H33.8648C33.8648 17.7904 31.723 15.6486 29.081 15.6486V17.6486ZM24.2162 17.6486H29.081V15.6486H24.2162V17.6486ZM23.2162 11.7838V16.6486H25.2162V11.7838H23.2162Z" fill="#3AB30C" mask="url(#path-6-inside-1_138_3358)"/>
</g>
<defs>
<filter id="filter0_i_138_3358" x="0" y="0" width="44" height="44" filterUnits="userSpaceOnUse" color-interpolation-filters="sRGB">
<feFlood flood-opacity="0" result="BackgroundImageFix"/>
<feBlend mode="normal" in="SourceGraphic" in2="BackgroundImageFix" result="shape"/>
<feColorMatrix in="SourceAlpha" type="matrix" values="0 0 0 0 0 0 0 0 0 0 0 0 0 0 0 0 0 0 127 0" result="hardAlpha"/>
<feOffset dx="4" dy="4"/>
<feGaussianBlur stdDeviation="2"/>
<feComposite in2="hardAlpha" operator="arithmetic" k2="-1" k3="1"/>
<feColorMatrix type="matrix" values="0 0 0 0 0.209566 0 0 0 0 0.731667 0 0 0 0 0.0438999 0 0 0 1 0"/>
<feBlend mode="normal" in2="shape" result="effect1_innerShadow_138_3358"/>
</filter>
<filter id="filter1_f_138_3358" x="5.69812" y="3.40381" width="9.49835" height="8.63525" filterUnits="userSpaceOnUse" color-interpolation-filters="sRGB">
<feFlood flood-opacity="0" result="BackgroundImageFix"/>
<feBlend mode="normal" in="SourceGraphic" in2="BackgroundImageFix" result="shape"/>
<feGaussianBlur stdDeviation="0.5" result="effect1_foregroundBlur_138_3358"/>
</filter>
<filter id="filter2_f_138_3358" x="26.5936" y="28.7378" width="6.41272" height="6.12329" filterUnits="userSpaceOnUse" color-interpolation-filters="sRGB">
<feFlood flood-opacity="0" result="BackgroundImageFix"/>
<feBlend mode="normal" in="SourceGraphic" in2="BackgroundImageFix" result="shape"/>
<feGaussianBlur stdDeviation="0.5" result="effect1_foregroundBlur_138_3358"/>
</filter>
<filter id="filter3_f_138_3358" x="2.61835" y="10.6885" width="4.96027" height="5.62573" filterUnits="userSpaceOnUse" color-interpolation-filters="sRGB">
<feFlood flood-opacity="0" result="BackgroundImageFix"/>
<feBlend mode="normal" in="SourceGraphic" in2="BackgroundImageFix" result="shape"/>
<feGaussianBlur stdDeviation="0.5" result="effect1_foregroundBlur_138_3358"/>
</filter>
<filter id="filter4_d_138_3358" x="3.99994" y="8" width="32.8649" height="32.8647" filterUnits="userSpaceOnUse" color-interpolation-filters="sRGB">
<feFlood flood-opacity="0" result="BackgroundImageFix"/>
<feColorMatrix in="SourceAlpha" type="matrix" values="0 0 0 0 0 0 0 0 0 0 0 0 0 0 0 0 0 0 127 0" result="hardAlpha"/>
<feOffset dy="4"/>
<feGaussianBlur stdDeviation="2"/>
<feComposite in2="hardAlpha" operator="out"/>
<feColorMatrix type="matrix" values="0 0 0 0 0 0 0 0 0 0 0 0 0 0 0 0 0 0 0.45 0"/>
<feBlend mode="normal" in2="BackgroundImageFix" result="effect1_dropShadow_138_3358"/>
<feBlend mode="normal" in="SourceGraphic" in2="effect1_dropShadow_138_3358" result="shape"/>
</filter>
<linearGradient id="paint0_linear_138_3358" x1="20" y1="0" x2="20" y2="40" gradientUnits="userSpaceOnUse">
<stop stop-color="#26810D"/>
<stop offset="1" stop-color="#B0F52C"/>
</linearGradient>
</defs>
</svg>
